<svg xmlns="http://www.w3.org/2000/svg" viewBox="0 0 236.39 268.17"><title>MySPPFillLogo</title><g style="isolation:isolate"><g id="Layer_2" data-name="Layer 2"><polygon points="231.69 210.53 115.85 268.17 0 210.53 36.72 192.26 107.66 245.19 230 209.69 231.69 210.53" style="fill:#6777ef"/><polygon points="232.41 207.78 103.7 221.11 15.46 126.48 56.25 122.26 104.1 196.71 231.12 206.4 232.41 207.78" style="fill:#6777ef"/><polygon points="234.05 205.46 108.85 172.78 59.42 53.19 99.1 63.55 117.79 150.07 233.33 203.71 234.05 205.46" style="fill:#6777ef"/><polygon id="_Path_" data-name="&lt;Path&gt;" points="232.07 74.54 126.31 0 130.63 129.32 236.39 203.87 232.07 74.54" style="fill:#6777ef"/><path id="_Path_2" data-name="&lt;Path&gt;" d="M154,13s27.53,27.53,52.27,99.44c25,72.84,57.81,104.43,57.81,104.43L158.29,142.32Z" transform="translate(-27.66 -13)" style="fill:#231f20;opacity:0.2;mix-blend-mode:multiply"/></g></g></svg>